<svg xmlns="http://www.w3.org/2000/svg" width="3840" height="2160" version="1.1"><defs><linearGradient id="gr0" x1="0%" x2="100%" y1="0%" y2="100%"><stop offset="0%" stop-color="rgb(4,0,0)"/><stop offset="100%" stop-color="rgb(0,0,0)"/></linearGradient></defs><polygon id="triangle36" points="3110,1896 3251,2022 2429,2081" style="fill: url(#gr0); stroke: rgb(0, 0, 0); stroke-width: 0;"/><defs><linearGradient id="gr1" x1="0%" x2="100%" y1="0%" y2="100%"><stop offset="0%" stop-color="rgb(111,15,15)"/><stop offset="100%" stop-color="rgb(74,9,9)"/></linearGradient></defs><polygon id="triangle36" points="16,15 1921,67 2286,28" style="fill: url(#gr1); stroke: rgb(0, 0, 0); stroke-width: 0;"/><defs><linearGradient id="gr2" x1="0%" x2="100%" y1="0%" y2="100%"><stop offset="0%" stop-color="rgb(69,9,9)"/><stop offset="100%" stop-color="rgb(45,5,5)"/></linearGradient></defs><polygon id="triangle36" points="2389,99 2864,21 2286,28" style="fill: url(#gr2); stroke: rgb(0, 0, 0); stroke-width: 0;"/><defs><linearGradient id="gr3" x1="0%" x2="100%" y1="0%" y2="100%"><stop offset="0%" stop-color="rgb(102,13,13)"/><stop offset="100%" stop-color="rgb(67,8,8)"/></linearGradient></defs><polygon id="triangle36" points="723,1234 1354,1468 962,1595" style="fill: url(#gr3); stroke: rgb(0, 0, 0); stroke-width: 0;"/><defs><linearGradient id="gr4" x1="0%" x2="100%" y1="0%" y2="100%"><stop offset="0%" stop-color="rgb(102,13,13)"/><stop offset="100%" stop-color="rgb(56,7,7)"/></linearGradient></defs><polygon id="triangle36" points="2852,360 2864,21 3181,64" style="fill: url(#gr4); stroke: rgb(0, 0, 0); stroke-width: 0;"/><defs><linearGradient id="gr5" x1="0%" x2="100%" y1="0%" y2="100%"><stop offset="0%" stop-color="rgb(151,20,20)"/><stop offset="100%" stop-color="rgb(104,14,14)"/></linearGradient></defs><polygon id="triangle36" points="16,15 53,1470 138,940" style="fill: url(#gr5); stroke: rgb(0, 0, 0); stroke-width: 0;"/><defs><linearGradient id="gr6" x1="0%" x2="100%" y1="0%" y2="100%"><stop offset="0%" stop-color="rgb(92,12,12)"/><stop offset="100%" stop-color="rgb(90,12,12)"/></linearGradient></defs><polygon id="triangle36" points="798,271 870,408 1333,143" style="fill: url(#gr6); stroke: rgb(0, 0, 0); stroke-width: 0;"/><defs><linearGradient id="gr7" x1="0%" x2="100%" y1="0%" y2="100%"><stop offset="0%" stop-color="rgb(75,10,10)"/><stop offset="100%" stop-color="rgb(99,13,13)"/></linearGradient></defs><polygon id="triangle36" points="2442,1406 2482,1345 2254,1131" style="fill: url(#gr7); stroke: rgb(0, 0, 0); stroke-width: 0;"/><defs><linearGradient id="gr8" x1="0%" x2="100%" y1="0%" y2="100%"><stop offset="0%" stop-color="rgb(135,18,18)"/><stop offset="100%" stop-color="rgb(133,17,17)"/></linearGradient></defs><polygon id="triangle36" points="2482,1345 2521,1006 2254,1131" style="fill: url(#gr8); stroke: rgb(0, 0, 0); stroke-width: 0;"/><defs><linearGradient id="gr9" x1="0%" x2="100%" y1="0%" y2="100%"><stop offset="0%" stop-color="rgb(111,14,14)"/><stop offset="100%" stop-color="rgb(96,12,12)"/></linearGradient></defs><polygon id="triangle36" points="2482,1345 2521,1006 2712,1166" style="fill: url(#gr9); stroke: rgb(0, 0, 0); stroke-width: 0;"/><defs><linearGradient id="gr10" x1="0%" x2="100%" y1="0%" y2="100%"><stop offset="0%" stop-color="rgb(44,5,5)"/><stop offset="100%" stop-color="rgb(48,6,6)"/></linearGradient></defs><polygon id="triangle36" points="1354,1468 1723,1731 1476,1376" style="fill: url(#gr10); stroke: rgb(0, 0, 0); stroke-width: 0;"/><defs><linearGradient id="gr11" x1="0%" x2="100%" y1="0%" y2="100%"><stop offset="0%" stop-color="rgb(102,14,14)"/><stop offset="100%" stop-color="rgb(134,18,18)"/></linearGradient></defs><polygon id="triangle36" points="3568,298 3815,645 3799,13" style="fill: url(#gr11); stroke: rgb(0, 0, 0); stroke-width: 0;"/><defs><linearGradient id="gr12" x1="0%" x2="100%" y1="0%" y2="100%"><stop offset="0%" stop-color="rgb(103,13,13)"/><stop offset="100%" stop-color="rgb(98,13,13)"/></linearGradient></defs><polygon id="triangle36" points="798,271 870,408 657,457" style="fill: url(#gr12); stroke: rgb(0, 0, 0); stroke-width: 0;"/><defs><linearGradient id="gr13" x1="0%" x2="100%" y1="0%" y2="100%"><stop offset="0%" stop-color="rgb(70,9,9)"/><stop offset="100%" stop-color="rgb(121,16,16)"/></linearGradient></defs><polygon id="triangle36" points="827,604 870,408 657,457" style="fill: url(#gr13); stroke: rgb(0, 0, 0); stroke-width: 0;"/><defs><linearGradient id="gr14" x1="0%" x2="100%" y1="0%" y2="100%"><stop offset="0%" stop-color="rgb(75,10,10)"/><stop offset="100%" stop-color="rgb(31,4,4)"/></linearGradient></defs><polygon id="triangle36" points="138,940 601,799 473,244" style="fill: url(#gr14); stroke: rgb(0, 0, 0); stroke-width: 0;"/><defs><linearGradient id="gr15" x1="0%" x2="100%" y1="0%" y2="100%"><stop offset="0%" stop-color="rgb(108,14,14)"/><stop offset="100%" stop-color="rgb(64,8,8)"/></linearGradient></defs><polygon id="triangle36" points="16,15 138,940 473,244" style="fill: url(#gr15); stroke: rgb(0, 0, 0); stroke-width: 0;"/><defs><linearGradient id="gr16" x1="0%" x2="100%" y1="0%" y2="100%"><stop offset="0%" stop-color="rgb(54,7,7)"/><stop offset="100%" stop-color="rgb(61,8,8)"/></linearGradient></defs><polygon id="triangle36" points="601,799 657,457 473,244" style="fill: url(#gr16); stroke: rgb(0, 0, 0); stroke-width: 0;"/><defs><linearGradient id="gr17" x1="0%" x2="100%" y1="0%" y2="100%"><stop offset="0%" stop-color="rgb(73,9,9)"/><stop offset="100%" stop-color="rgb(108,14,14)"/></linearGradient></defs><polygon id="triangle36" points="1354,1468 1476,1376 1304,787" style="fill: url(#gr17); stroke: rgb(0, 0, 0); stroke-width: 0;"/><defs><linearGradient id="gr18" x1="0%" x2="100%" y1="0%" y2="100%"><stop offset="0%" stop-color="rgb(108,14,14)"/><stop offset="100%" stop-color="rgb(118,16,16)"/></linearGradient></defs><polygon id="triangle36" points="1476,1376 1566,1140 1304,787" style="fill: url(#gr18); stroke: rgb(0, 0, 0); stroke-width: 0;"/><defs><linearGradient id="gr19" x1="0%" x2="100%" y1="0%" y2="100%"><stop offset="0%" stop-color="rgb(41,5,5)"/><stop offset="100%" stop-color="rgb(95,12,12)"/></linearGradient></defs><polygon id="triangle36" points="719,892 723,1234 1304,787" style="fill: url(#gr19); stroke: rgb(0, 0, 0); stroke-width: 0;"/><defs><linearGradient id="gr20" x1="0%" x2="100%" y1="0%" y2="100%"><stop offset="0%" stop-color="rgb(81,11,11)"/><stop offset="100%" stop-color="rgb(107,14,14)"/></linearGradient></defs><polygon id="triangle36" points="719,892 738,793 1304,787" style="fill: url(#gr20); stroke: rgb(0, 0, 0); stroke-width: 0;"/><defs><linearGradient id="gr21" x1="0%" x2="100%" y1="0%" y2="100%"><stop offset="0%" stop-color="rgb(60,8,8)"/><stop offset="100%" stop-color="rgb(77,10,10)"/></linearGradient></defs><polygon id="triangle36" points="723,1234 1354,1468 1304,787" style="fill: url(#gr21); stroke: rgb(0, 0, 0); stroke-width: 0;"/><defs><linearGradient id="gr22" x1="0%" x2="100%" y1="0%" y2="100%"><stop offset="0%" stop-color="rgb(98,13,13)"/><stop offset="100%" stop-color="rgb(97,13,13)"/></linearGradient></defs><polygon id="triangle36" points="738,793 827,604 1304,787" style="fill: url(#gr22); stroke: rgb(0, 0, 0); stroke-width: 0;"/><defs><linearGradient id="gr23" x1="0%" x2="100%" y1="0%" y2="100%"><stop offset="0%" stop-color="rgb(38,5,5)"/><stop offset="100%" stop-color="rgb(87,11,11)"/></linearGradient></defs><polygon id="triangle36" points="3422,1004 3557,944 3595,1024" style="fill: url(#gr23); stroke: rgb(0, 0, 0); stroke-width: 0;"/><defs><linearGradient id="gr24" x1="0%" x2="100%" y1="0%" y2="100%"><stop offset="0%" stop-color="rgb(108,14,14)"/><stop offset="100%" stop-color="rgb(132,17,17)"/></linearGradient></defs><polygon id="triangle36" points="3557,944 3772,1099 3595,1024" style="fill: url(#gr24); stroke: rgb(0, 0, 0); stroke-width: 0;"/><defs><linearGradient id="gr25" x1="0%" x2="100%" y1="0%" y2="100%"><stop offset="0%" stop-color="rgb(7,0,0)"/><stop offset="100%" stop-color="rgb(13,1,1)"/></linearGradient></defs><polygon id="triangle36" points="3110,1896 3251,2022 3792,1687" style="fill: url(#gr25); stroke: rgb(0, 0, 0); stroke-width: 0;"/><defs><linearGradient id="gr26" x1="0%" x2="100%" y1="0%" y2="100%"><stop offset="0%" stop-color="rgb(147,19,19)"/><stop offset="100%" stop-color="rgb(99,13,13)"/></linearGradient></defs><polygon id="triangle36" points="3595,1024 3772,1099 3792,1687" style="fill: url(#gr26); stroke: rgb(0, 0, 0); stroke-width: 0;"/><defs><linearGradient id="gr27" x1="0%" x2="100%" y1="0%" y2="100%"><stop offset="0%" stop-color="rgb(88,11,11)"/><stop offset="100%" stop-color="rgb(93,12,12)"/></linearGradient></defs><polygon id="triangle36" points="3772,1099 3815,645 3792,1687" style="fill: url(#gr27); stroke: rgb(0, 0, 0); stroke-width: 0;"/><defs><linearGradient id="gr28" x1="0%" x2="100%" y1="0%" y2="100%"><stop offset="0%" stop-color="rgb(101,13,13)"/><stop offset="100%" stop-color="rgb(144,19,19)"/></linearGradient></defs><polygon id="triangle36" points="827,604 1304,787 1256,532" style="fill: url(#gr28); stroke: rgb(0, 0, 0); stroke-width: 0;"/><defs><linearGradient id="gr29" x1="0%" x2="100%" y1="0%" y2="100%"><stop offset="0%" stop-color="rgb(85,11,11)"/><stop offset="100%" stop-color="rgb(142,19,19)"/></linearGradient></defs><polygon id="triangle36" points="827,604 870,408 1256,532" style="fill: url(#gr29); stroke: rgb(0, 0, 0); stroke-width: 0;"/><defs><linearGradient id="gr30" x1="0%" x2="100%" y1="0%" y2="100%"><stop offset="0%" stop-color="rgb(164,22,22)"/><stop offset="100%" stop-color="rgb(107,14,14)"/></linearGradient></defs><polygon id="triangle36" points="870,408 1333,143 1256,532" style="fill: url(#gr30); stroke: rgb(0, 0, 0); stroke-width: 0;"/><defs><linearGradient id="gr31" x1="0%" x2="100%" y1="0%" y2="100%"><stop offset="0%" stop-color="rgb(62,8,8)"/><stop offset="100%" stop-color="rgb(48,6,6)"/></linearGradient></defs><polygon id="triangle36" points="2852,360 3181,64 3497,311" style="fill: url(#gr31); stroke: rgb(0, 0, 0); stroke-width: 0;"/><defs><linearGradient id="gr32" x1="0%" x2="100%" y1="0%" y2="100%"><stop offset="0%" stop-color="rgb(88,12,12)"/><stop offset="100%" stop-color="rgb(123,16,16)"/></linearGradient></defs><polygon id="triangle36" points="3568,298 3815,645 3497,311" style="fill: url(#gr32); stroke: rgb(0, 0, 0); stroke-width: 0;"/><defs><linearGradient id="gr33" x1="0%" x2="100%" y1="0%" y2="100%"><stop offset="0%" stop-color="rgb(44,5,5)"/><stop offset="100%" stop-color="rgb(78,10,10)"/></linearGradient></defs><polygon id="triangle36" points="2864,21 3181,64 3469,18" style="fill: url(#gr33); stroke: rgb(0, 0, 0); stroke-width: 0;"/><defs><linearGradient id="gr34" x1="0%" x2="100%" y1="0%" y2="100%"><stop offset="0%" stop-color="rgb(55,7,7)"/><stop offset="100%" stop-color="rgb(124,16,16)"/></linearGradient></defs><polygon id="triangle36" points="3181,64 3497,311 3469,18" style="fill: url(#gr34); stroke: rgb(0, 0, 0); stroke-width: 0;"/><defs><linearGradient id="gr35" x1="0%" x2="100%" y1="0%" y2="100%"><stop offset="0%" stop-color="rgb(96,12,12)"/><stop offset="100%" stop-color="rgb(121,16,16)"/></linearGradient></defs><polygon id="triangle36" points="3497,311 3568,298 3469,18" style="fill: url(#gr35); stroke: rgb(0, 0, 0); stroke-width: 0;"/><defs><linearGradient id="gr36" x1="0%" x2="100%" y1="0%" y2="100%"><stop offset="0%" stop-color="rgb(72,9,9)"/><stop offset="100%" stop-color="rgb(111,14,14)"/></linearGradient></defs><polygon id="triangle36" points="3568,298 3799,13 3469,18" style="fill: url(#gr36); stroke: rgb(0, 0, 0); stroke-width: 0;"/><defs><linearGradient id="gr37" x1="0%" x2="100%" y1="0%" y2="100%"><stop offset="0%" stop-color="rgb(66,9,9)"/><stop offset="100%" stop-color="rgb(71,9,9)"/></linearGradient></defs><polygon id="triangle36" points="2442,1406 2482,1345 2900,1613" style="fill: url(#gr37); stroke: rgb(0, 0, 0); stroke-width: 0;"/><defs><linearGradient id="gr38" x1="0%" x2="100%" y1="0%" y2="100%"><stop offset="0%" stop-color="rgb(47,6,6)"/><stop offset="100%" stop-color="rgb(27,3,3)"/></linearGradient></defs><polygon id="triangle36" points="2442,1406 2696,1793 2900,1613" style="fill: url(#gr38); stroke: rgb(0, 0, 0); stroke-width: 0;"/><defs><linearGradient id="gr39" x1="0%" x2="100%" y1="0%" y2="100%"><stop offset="0%" stop-color="rgb(85,11,11)"/><stop offset="100%" stop-color="rgb(46,5,5)"/></linearGradient></defs><polygon id="triangle36" points="2482,1345 2712,1166 2900,1613" style="fill: url(#gr39); stroke: rgb(0, 0, 0); stroke-width: 0;"/><defs><linearGradient id="gr40" x1="0%" x2="100%" y1="0%" y2="100%"><stop offset="0%" stop-color="rgb(13,1,1)"/><stop offset="100%" stop-color="rgb(18,2,2)"/></linearGradient></defs><polygon id="triangle36" points="2696,1793 3110,1896 2900,1613" style="fill: url(#gr40); stroke: rgb(0, 0, 0); stroke-width: 0;"/><defs><linearGradient id="gr41" x1="0%" x2="100%" y1="0%" y2="100%"><stop offset="0%" stop-color="rgb(127,17,17)"/><stop offset="100%" stop-color="rgb(125,16,16)"/></linearGradient></defs><polygon id="triangle36" points="2254,1131 2521,1006 2242,862" style="fill: url(#gr41); stroke: rgb(0, 0, 0); stroke-width: 0;"/><defs><linearGradient id="gr42" x1="0%" x2="100%" y1="0%" y2="100%"><stop offset="0%" stop-color="rgb(94,12,12)"/><stop offset="100%" stop-color="rgb(76,10,10)"/></linearGradient></defs><polygon id="triangle36" points="2852,360 3497,311 3412,875" style="fill: url(#gr42); stroke: rgb(0, 0, 0); stroke-width: 0;"/><defs><linearGradient id="gr43" x1="0%" x2="100%" y1="0%" y2="100%"><stop offset="0%" stop-color="rgb(64,8,8)"/><stop offset="100%" stop-color="rgb(68,9,9)"/></linearGradient></defs><polygon id="triangle36" points="3422,1004 3557,944 3412,875" style="fill: url(#gr43); stroke: rgb(0, 0, 0); stroke-width: 0;"/><defs><linearGradient id="gr44" x1="0%" x2="100%" y1="0%" y2="100%"><stop offset="0%" stop-color="rgb(92,12,12)"/><stop offset="100%" stop-color="rgb(60,7,7)"/></linearGradient></defs><polygon id="triangle36" points="2446,315 2852,360 2544,820" style="fill: url(#gr44); stroke: rgb(0, 0, 0); stroke-width: 0;"/><defs><linearGradient id="gr45" x1="0%" x2="100%" y1="0%" y2="100%"><stop offset="0%" stop-color="rgb(117,15,15)"/><stop offset="100%" stop-color="rgb(66,8,8)"/></linearGradient></defs><polygon id="triangle36" points="2521,1006 2712,1166 2544,820" style="fill: url(#gr45); stroke: rgb(0, 0, 0); stroke-width: 0;"/><defs><linearGradient id="gr46" x1="0%" x2="100%" y1="0%" y2="100%"><stop offset="0%" stop-color="rgb(71,9,9)"/><stop offset="100%" stop-color="rgb(44,5,5)"/></linearGradient></defs><polygon id="triangle36" points="2852,360 3412,875 2544,820" style="fill: url(#gr46); stroke: rgb(0, 0, 0); stroke-width: 0;"/><defs><linearGradient id="gr47" x1="0%" x2="100%" y1="0%" y2="100%"><stop offset="0%" stop-color="rgb(60,7,7)"/><stop offset="100%" stop-color="rgb(24,3,3)"/></linearGradient></defs><polygon id="triangle36" points="1354,1468 1723,1731 1409,2006" style="fill: url(#gr47); stroke: rgb(0, 0, 0); stroke-width: 0;"/><defs><linearGradient id="gr48" x1="0%" x2="100%" y1="0%" y2="100%"><stop offset="0%" stop-color="rgb(17,2,2)"/><stop offset="100%" stop-color="rgb(6,0,0)"/></linearGradient></defs><polygon id="triangle36" points="1723,1731 1971,1856 1409,2006" style="fill: url(#gr48); stroke: rgb(0, 0, 0); stroke-width: 0;"/><defs><linearGradient id="gr49" x1="0%" x2="100%" y1="0%" y2="100%"><stop offset="0%" stop-color="rgb(4,0,0)"/><stop offset="100%" stop-color="rgb(0,0,0)"/></linearGradient></defs><polygon id="triangle36" points="1971,1856 2362,2093 1409,2006" style="fill: url(#gr49); stroke: rgb(0, 0, 0); stroke-width: 0;"/><defs><linearGradient id="gr50" x1="0%" x2="100%" y1="0%" y2="100%"><stop offset="0%" stop-color="rgb(12,1,1)"/><stop offset="100%" stop-color="rgb(15,2,2)"/></linearGradient></defs><polygon id="triangle36" points="712,1802 962,1595 1409,2006" style="fill: url(#gr50); stroke: rgb(0, 0, 0); stroke-width: 0;"/><defs><linearGradient id="gr51" x1="0%" x2="100%" y1="0%" y2="100%"><stop offset="0%" stop-color="rgb(42,5,5)"/><stop offset="100%" stop-color="rgb(40,5,5)"/></linearGradient></defs><polygon id="triangle36" points="962,1595 1354,1468 1409,2006" style="fill: url(#gr51); stroke: rgb(0, 0, 0); stroke-width: 0;"/><defs><linearGradient id="gr52" x1="0%" x2="100%" y1="0%" y2="100%"><stop offset="0%" stop-color="rgb(6,0,0)"/><stop offset="100%" stop-color="rgb(8,0,0)"/></linearGradient></defs><polygon id="triangle36" points="1971,1856 2362,2093 2623,1882" style="fill: url(#gr52); stroke: rgb(0, 0, 0); stroke-width: 0;"/><defs><linearGradient id="gr53" x1="0%" x2="100%" y1="0%" y2="100%"><stop offset="0%" stop-color="rgb(33,4,4)"/><stop offset="100%" stop-color="rgb(50,6,6)"/></linearGradient></defs><polygon id="triangle36" points="1971,1856 2442,1406 2623,1882" style="fill: url(#gr53); stroke: rgb(0, 0, 0); stroke-width: 0;"/><defs><linearGradient id="gr54" x1="0%" x2="100%" y1="0%" y2="100%"><stop offset="0%" stop-color="rgb(0,0,0)"/><stop offset="100%" stop-color="rgb(6,0,0)"/></linearGradient></defs><polygon id="triangle36" points="2362,2093 2429,2081 2623,1882" style="fill: url(#gr54); stroke: rgb(0, 0, 0); stroke-width: 0;"/><defs><linearGradient id="gr55" x1="0%" x2="100%" y1="0%" y2="100%"><stop offset="0%" stop-color="rgb(2,0,0)"/><stop offset="100%" stop-color="rgb(10,1,1)"/></linearGradient></defs><polygon id="triangle36" points="2429,2081 3110,1896 2623,1882" style="fill: url(#gr55); stroke: rgb(0, 0, 0); stroke-width: 0;"/><defs><linearGradient id="gr56" x1="0%" x2="100%" y1="0%" y2="100%"><stop offset="0%" stop-color="rgb(64,8,8)"/><stop offset="100%" stop-color="rgb(31,3,3)"/></linearGradient></defs><polygon id="triangle36" points="2442,1406 2696,1793 2623,1882" style="fill: url(#gr56); stroke: rgb(0, 0, 0); stroke-width: 0;"/><defs><linearGradient id="gr57" x1="0%" x2="100%" y1="0%" y2="100%"><stop offset="0%" stop-color="rgb(10,1,1)"/><stop offset="100%" stop-color="rgb(9,1,1)"/></linearGradient></defs><polygon id="triangle36" points="2696,1793 3110,1896 2623,1882" style="fill: url(#gr57); stroke: rgb(0, 0, 0); stroke-width: 0;"/><defs><linearGradient id="gr58" x1="0%" x2="100%" y1="0%" y2="100%"><stop offset="0%" stop-color="rgb(84,11,11)"/><stop offset="100%" stop-color="rgb(96,13,13)"/></linearGradient></defs><polygon id="triangle36" points="2286,28 2389,99 2239,418" style="fill: url(#gr58); stroke: rgb(0, 0, 0); stroke-width: 0;"/><defs><linearGradient id="gr59" x1="0%" x2="100%" y1="0%" y2="100%"><stop offset="0%" stop-color="rgb(87,11,11)"/><stop offset="100%" stop-color="rgb(108,14,14)"/></linearGradient></defs><polygon id="triangle36" points="2389,99 2446,315 2239,418" style="fill: url(#gr59); stroke: rgb(0, 0, 0); stroke-width: 0;"/><defs><linearGradient id="gr60" x1="0%" x2="100%" y1="0%" y2="100%"><stop offset="0%" stop-color="rgb(154,20,20)"/><stop offset="100%" stop-color="rgb(88,11,11)"/></linearGradient></defs><polygon id="triangle36" points="2446,315 2544,820 2239,418" style="fill: url(#gr60); stroke: rgb(0, 0, 0); stroke-width: 0;"/><defs><linearGradient id="gr61" x1="0%" x2="100%" y1="0%" y2="100%"><stop offset="0%" stop-color="rgb(77,10,10)"/><stop offset="100%" stop-color="rgb(130,17,17)"/></linearGradient></defs><polygon id="triangle36" points="3412,875 3497,311 3548,832" style="fill: url(#gr61); stroke: rgb(0, 0, 0); stroke-width: 0;"/><defs><linearGradient id="gr62" x1="0%" x2="100%" y1="0%" y2="100%"><stop offset="0%" stop-color="rgb(91,12,12)"/><stop offset="100%" stop-color="rgb(133,18,18)"/></linearGradient></defs><polygon id="triangle36" points="3412,875 3557,944 3548,832" style="fill: url(#gr62); stroke: rgb(0, 0, 0); stroke-width: 0;"/><defs><linearGradient id="gr63" x1="0%" x2="100%" y1="0%" y2="100%"><stop offset="0%" stop-color="rgb(61,8,8)"/><stop offset="100%" stop-color="rgb(123,16,16)"/></linearGradient></defs><polygon id="triangle36" points="3497,311 3815,645 3548,832" style="fill: url(#gr63); stroke: rgb(0, 0, 0); stroke-width: 0;"/><defs><linearGradient id="gr64" x1="0%" x2="100%" y1="0%" y2="100%"><stop offset="0%" stop-color="rgb(104,14,14)"/><stop offset="100%" stop-color="rgb(135,18,18)"/></linearGradient></defs><polygon id="triangle36" points="3557,944 3772,1099 3548,832" style="fill: url(#gr64); stroke: rgb(0, 0, 0); stroke-width: 0;"/><defs><linearGradient id="gr65" x1="0%" x2="100%" y1="0%" y2="100%"><stop offset="0%" stop-color="rgb(79,10,10)"/><stop offset="100%" stop-color="rgb(132,17,17)"/></linearGradient></defs><polygon id="triangle36" points="3772,1099 3815,645 3548,832" style="fill: url(#gr65); stroke: rgb(0, 0, 0); stroke-width: 0;"/><defs><linearGradient id="gr66" x1="0%" x2="100%" y1="0%" y2="100%"><stop offset="0%" stop-color="rgb(32,4,4)"/><stop offset="100%" stop-color="rgb(52,6,6)"/></linearGradient></defs><polygon id="triangle36" points="712,1802 962,1595 756,1615" style="fill: url(#gr66); stroke: rgb(0, 0, 0); stroke-width: 0;"/><defs><linearGradient id="gr67" x1="0%" x2="100%" y1="0%" y2="100%"><stop offset="0%" stop-color="rgb(103,13,13)"/><stop offset="100%" stop-color="rgb(67,8,8)"/></linearGradient></defs><polygon id="triangle36" points="723,1234 962,1595 756,1615" style="fill: url(#gr67); stroke: rgb(0, 0, 0); stroke-width: 0;"/><defs><linearGradient id="gr68" x1="0%" x2="100%" y1="0%" y2="100%"><stop offset="0%" stop-color="rgb(77,10,10)"/><stop offset="100%" stop-color="rgb(60,8,8)"/></linearGradient></defs><polygon id="triangle36" points="2239,418 2242,862 2438,844" style="fill: url(#gr68); stroke: rgb(0, 0, 0); stroke-width: 0;"/><defs><linearGradient id="gr69" x1="0%" x2="100%" y1="0%" y2="100%"><stop offset="0%" stop-color="rgb(113,15,15)"/><stop offset="100%" stop-color="rgb(76,10,10)"/></linearGradient></defs><polygon id="triangle36" points="2239,418 2544,820 2438,844" style="fill: url(#gr69); stroke: rgb(0, 0, 0); stroke-width: 0;"/><defs><linearGradient id="gr70" x1="0%" x2="100%" y1="0%" y2="100%"><stop offset="0%" stop-color="rgb(81,10,10)"/><stop offset="100%" stop-color="rgb(75,9,9)"/></linearGradient></defs><polygon id="triangle36" points="2242,862 2521,1006 2438,844" style="fill: url(#gr70); stroke: rgb(0, 0, 0); stroke-width: 0;"/><defs><linearGradient id="gr71" x1="0%" x2="100%" y1="0%" y2="100%"><stop offset="0%" stop-color="rgb(73,9,9)"/><stop offset="100%" stop-color="rgb(25,3,3)"/></linearGradient></defs><polygon id="triangle36" points="2521,1006 2544,820 2438,844" style="fill: url(#gr71); stroke: rgb(0, 0, 0); stroke-width: 0;"/><defs><linearGradient id="gr72" x1="0%" x2="100%" y1="0%" y2="100%"><stop offset="0%" stop-color="rgb(3,0,0)"/><stop offset="100%" stop-color="rgb(5,0,0)"/></linearGradient></defs><polygon id="triangle36" points="446,1879 712,1802 262,2000" style="fill: url(#gr72); stroke: rgb(0, 0, 0); stroke-width: 0;"/><defs><linearGradient id="gr73" x1="0%" x2="100%" y1="0%" y2="100%"><stop offset="0%" stop-color="rgb(9,0,0)"/><stop offset="100%" stop-color="rgb(2,0,0)"/></linearGradient></defs><polygon id="triangle36" points="712,1802 1409,2006 262,2000" style="fill: url(#gr73); stroke: rgb(0, 0, 0); stroke-width: 0;"/><defs><linearGradient id="gr74" x1="0%" x2="100%" y1="0%" y2="100%"><stop offset="0%" stop-color="rgb(63,8,8)"/><stop offset="100%" stop-color="rgb(24,3,3)"/></linearGradient></defs><polygon id="triangle36" points="138,940 312,1485 134,1492" style="fill: url(#gr74); stroke: rgb(0, 0, 0); stroke-width: 0;"/><defs><linearGradient id="gr75" x1="0%" x2="100%" y1="0%" y2="100%"><stop offset="0%" stop-color="rgb(39,5,5)"/><stop offset="100%" stop-color="rgb(44,5,5)"/></linearGradient></defs><polygon id="triangle36" points="53,1470 138,940 134,1492" style="fill: url(#gr75); stroke: rgb(0, 0, 0); stroke-width: 0;"/><defs><linearGradient id="gr76" x1="0%" x2="100%" y1="0%" y2="100%"><stop offset="0%" stop-color="rgb(116,15,15)"/><stop offset="100%" stop-color="rgb(106,14,14)"/></linearGradient></defs><polygon id="triangle36" points="1256,532 1333,143 1404,140" style="fill: url(#gr76); stroke: rgb(0, 0, 0); stroke-width: 0;"/><defs><linearGradient id="gr77" x1="0%" x2="100%" y1="0%" y2="100%"><stop offset="0%" stop-color="rgb(82,11,11)"/><stop offset="100%" stop-color="rgb(123,16,16)"/></linearGradient></defs><polygon id="triangle36" points="1333,143 1921,67 1404,140" style="fill: url(#gr77); stroke: rgb(0, 0, 0); stroke-width: 0;"/><defs><linearGradient id="gr78" x1="0%" x2="100%" y1="0%" y2="100%"><stop offset="0%" stop-color="rgb(50,6,6)"/><stop offset="100%" stop-color="rgb(37,5,5)"/></linearGradient></defs><polygon id="triangle36" points="2712,1166 2900,1613 3127,1442" style="fill: url(#gr78); stroke: rgb(0, 0, 0); stroke-width: 0;"/><defs><linearGradient id="gr79" x1="0%" x2="100%" y1="0%" y2="100%"><stop offset="0%" stop-color="rgb(34,4,4)"/><stop offset="100%" stop-color="rgb(18,2,2)"/></linearGradient></defs><polygon id="triangle36" points="2900,1613 3110,1896 3127,1442" style="fill: url(#gr79); stroke: rgb(0, 0, 0); stroke-width: 0;"/><defs><linearGradient id="gr80" x1="0%" x2="100%" y1="0%" y2="100%"><stop offset="0%" stop-color="rgb(27,3,3)"/><stop offset="100%" stop-color="rgb(31,4,4)"/></linearGradient></defs><polygon id="triangle36" points="3110,1896 3792,1687 3127,1442" style="fill: url(#gr80); stroke: rgb(0, 0, 0); stroke-width: 0;"/><defs><linearGradient id="gr81" x1="0%" x2="100%" y1="0%" y2="100%"><stop offset="0%" stop-color="rgb(123,16,16)"/><stop offset="100%" stop-color="rgb(48,6,6)"/></linearGradient></defs><polygon id="triangle36" points="3595,1024 3792,1687 3127,1442" style="fill: url(#gr81); stroke: rgb(0, 0, 0); stroke-width: 0;"/><defs><linearGradient id="gr82" x1="0%" x2="100%" y1="0%" y2="100%"><stop offset="0%" stop-color="rgb(114,15,15)"/><stop offset="100%" stop-color="rgb(77,10,10)"/></linearGradient></defs><polygon id="triangle36" points="138,940 312,1485 513,1058" style="fill: url(#gr82); stroke: rgb(0, 0, 0); stroke-width: 0;"/><defs><linearGradient id="gr83" x1="0%" x2="100%" y1="0%" y2="100%"><stop offset="0%" stop-color="rgb(122,16,16)"/><stop offset="100%" stop-color="rgb(70,9,9)"/></linearGradient></defs><polygon id="triangle36" points="138,940 601,799 513,1058" style="fill: url(#gr83); stroke: rgb(0, 0, 0); stroke-width: 0;"/><defs><linearGradient id="gr84" x1="0%" x2="100%" y1="0%" y2="100%"><stop offset="0%" stop-color="rgb(50,7,7)"/><stop offset="100%" stop-color="rgb(62,8,8)"/></linearGradient></defs><polygon id="triangle36" points="601,799 719,892 513,1058" style="fill: url(#gr84); stroke: rgb(0, 0, 0); stroke-width: 0;"/><defs><linearGradient id="gr85" x1="0%" x2="100%" y1="0%" y2="100%"><stop offset="0%" stop-color="rgb(122,16,16)"/><stop offset="100%" stop-color="rgb(120,16,16)"/></linearGradient></defs><polygon id="triangle36" points="719,892 723,1234 513,1058" style="fill: url(#gr85); stroke: rgb(0, 0, 0); stroke-width: 0;"/><defs><linearGradient id="gr86" x1="0%" x2="100%" y1="0%" y2="100%"><stop offset="0%" stop-color="rgb(103,14,14)"/><stop offset="100%" stop-color="rgb(74,10,10)"/></linearGradient></defs><polygon id="triangle36" points="1476,1376 1566,1140 1877,1292" style="fill: url(#gr86); stroke: rgb(0, 0, 0); stroke-width: 0;"/><defs><linearGradient id="gr87" x1="0%" x2="100%" y1="0%" y2="100%"><stop offset="0%" stop-color="rgb(74,10,10)"/><stop offset="100%" stop-color="rgb(31,4,4)"/></linearGradient></defs><polygon id="triangle36" points="1476,1376 1723,1731 1877,1292" style="fill: url(#gr87); stroke: rgb(0, 0, 0); stroke-width: 0;"/><defs><linearGradient id="gr88" x1="0%" x2="100%" y1="0%" y2="100%"><stop offset="0%" stop-color="rgb(52,7,7)"/><stop offset="100%" stop-color="rgb(28,3,3)"/></linearGradient></defs><polygon id="triangle36" points="1566,1140 1681,1089 1877,1292" style="fill: url(#gr88); stroke: rgb(0, 0, 0); stroke-width: 0;"/><defs><linearGradient id="gr89" x1="0%" x2="100%" y1="0%" y2="100%"><stop offset="0%" stop-color="rgb(45,6,6)"/><stop offset="100%" stop-color="rgb(33,4,4)"/></linearGradient></defs><polygon id="triangle36" points="1723,1731 1971,1856 1877,1292" style="fill: url(#gr89); stroke: rgb(0, 0, 0); stroke-width: 0;"/><defs><linearGradient id="gr90" x1="0%" x2="100%" y1="0%" y2="100%"><stop offset="0%" stop-color="rgb(49,6,6)"/><stop offset="100%" stop-color="rgb(62,8,8)"/></linearGradient></defs><polygon id="triangle36" points="1971,1856 2442,1406 1877,1292" style="fill: url(#gr90); stroke: rgb(0, 0, 0); stroke-width: 0;"/><defs><linearGradient id="gr91" x1="0%" x2="100%" y1="0%" y2="100%"><stop offset="0%" stop-color="rgb(39,5,5)"/><stop offset="100%" stop-color="rgb(39,5,5)"/></linearGradient></defs><polygon id="triangle36" points="601,799 657,457 645,767" style="fill: url(#gr91); stroke: rgb(0, 0, 0); stroke-width: 0;"/><defs><linearGradient id="gr92" x1="0%" x2="100%" y1="0%" y2="100%"><stop offset="0%" stop-color="rgb(22,3,3)"/><stop offset="100%" stop-color="rgb(23,3,3)"/></linearGradient></defs><polygon id="triangle36" points="601,799 719,892 645,767" style="fill: url(#gr92); stroke: rgb(0, 0, 0); stroke-width: 0;"/><defs><linearGradient id="gr93" x1="0%" x2="100%" y1="0%" y2="100%"><stop offset="0%" stop-color="rgb(97,13,13)"/><stop offset="100%" stop-color="rgb(48,6,6)"/></linearGradient></defs><polygon id="triangle36" points="657,457 827,604 645,767" style="fill: url(#gr93); stroke: rgb(0, 0, 0); stroke-width: 0;"/><defs><linearGradient id="gr94" x1="0%" x2="100%" y1="0%" y2="100%"><stop offset="0%" stop-color="rgb(48,6,6)"/><stop offset="100%" stop-color="rgb(37,5,5)"/></linearGradient></defs><polygon id="triangle36" points="719,892 738,793 645,767" style="fill: url(#gr94); stroke: rgb(0, 0, 0); stroke-width: 0;"/><defs><linearGradient id="gr95" x1="0%" x2="100%" y1="0%" y2="100%"><stop offset="0%" stop-color="rgb(52,7,7)"/><stop offset="100%" stop-color="rgb(18,2,2)"/></linearGradient></defs><polygon id="triangle36" points="738,793 827,604 645,767" style="fill: url(#gr95); stroke: rgb(0, 0, 0); stroke-width: 0;"/><defs><linearGradient id="gr96" x1="0%" x2="100%" y1="0%" y2="100%"><stop offset="0%" stop-color="rgb(89,12,12)"/><stop offset="100%" stop-color="rgb(91,12,12)"/></linearGradient></defs><polygon id="triangle36" points="2389,99 2446,315 2435,149" style="fill: url(#gr96); stroke: rgb(0, 0, 0); stroke-width: 0;"/><defs><linearGradient id="gr97" x1="0%" x2="100%" y1="0%" y2="100%"><stop offset="0%" stop-color="rgb(78,10,10)"/><stop offset="100%" stop-color="rgb(42,5,5)"/></linearGradient></defs><polygon id="triangle36" points="2389,99 2864,21 2435,149" style="fill: url(#gr97); stroke: rgb(0, 0, 0); stroke-width: 0;"/><defs><linearGradient id="gr98" x1="0%" x2="100%" y1="0%" y2="100%"><stop offset="0%" stop-color="rgb(173,23,23)"/><stop offset="100%" stop-color="rgb(97,13,13)"/></linearGradient></defs><polygon id="triangle36" points="2446,315 2852,360 2435,149" style="fill: url(#gr98); stroke: rgb(0, 0, 0); stroke-width: 0;"/><defs><linearGradient id="gr99" x1="0%" x2="100%" y1="0%" y2="100%"><stop offset="0%" stop-color="rgb(119,15,15)"/><stop offset="100%" stop-color="rgb(63,8,8)"/></linearGradient></defs><polygon id="triangle36" points="2852,360 2864,21 2435,149" style="fill: url(#gr99); stroke: rgb(0, 0, 0); stroke-width: 0;"/><defs><linearGradient id="gr100" x1="0%" x2="100%" y1="0%" y2="100%"><stop offset="0%" stop-color="rgb(104,13,13)"/><stop offset="100%" stop-color="rgb(113,15,15)"/></linearGradient></defs><polygon id="triangle36" points="1256,532 1304,787 1732,924" style="fill: url(#gr100); stroke: rgb(0, 0, 0); stroke-width: 0;"/><defs><linearGradient id="gr101" x1="0%" x2="100%" y1="0%" y2="100%"><stop offset="0%" stop-color="rgb(94,12,12)"/><stop offset="100%" stop-color="rgb(73,9,9)"/></linearGradient></defs><polygon id="triangle36" points="1304,787 1566,1140 1732,924" style="fill: url(#gr101); stroke: rgb(0, 0, 0); stroke-width: 0;"/><defs><linearGradient id="gr102" x1="0%" x2="100%" y1="0%" y2="100%"><stop offset="0%" stop-color="rgb(122,16,16)"/><stop offset="100%" stop-color="rgb(94,12,12)"/></linearGradient></defs><polygon id="triangle36" points="1566,1140 1681,1089 1732,924" style="fill: url(#gr102); stroke: rgb(0, 0, 0); stroke-width: 0;"/><defs><linearGradient id="gr103" x1="0%" x2="100%" y1="0%" y2="100%"><stop offset="0%" stop-color="rgb(68,9,9)"/><stop offset="100%" stop-color="rgb(66,8,8)"/></linearGradient></defs><polygon id="triangle36" points="1681,1089 1877,1292 1732,924" style="fill: url(#gr103); stroke: rgb(0, 0, 0); stroke-width: 0;"/><defs><linearGradient id="gr104" x1="0%" x2="100%" y1="0%" y2="100%"><stop offset="0%" stop-color="rgb(105,14,14)"/><stop offset="100%" stop-color="rgb(104,13,13)"/></linearGradient></defs><polygon id="triangle36" points="2239,418 2242,862 1732,924" style="fill: url(#gr104); stroke: rgb(0, 0, 0); stroke-width: 0;"/><defs><linearGradient id="gr105" x1="0%" x2="100%" y1="0%" y2="100%"><stop offset="0%" stop-color="rgb(150,20,20)"/><stop offset="100%" stop-color="rgb(151,20,20)"/></linearGradient></defs><polygon id="triangle36" points="1256,532 1404,140 1903,203" style="fill: url(#gr105); stroke: rgb(0, 0, 0); stroke-width: 0;"/><defs><linearGradient id="gr106" x1="0%" x2="100%" y1="0%" y2="100%"><stop offset="0%" stop-color="rgb(74,9,9)"/><stop offset="100%" stop-color="rgb(89,11,11)"/></linearGradient></defs><polygon id="triangle36" points="1256,532 1732,924 1903,203" style="fill: url(#gr106); stroke: rgb(0, 0, 0); stroke-width: 0;"/><defs><linearGradient id="gr107" x1="0%" x2="100%" y1="0%" y2="100%"><stop offset="0%" stop-color="rgb(65,8,8)"/><stop offset="100%" stop-color="rgb(99,13,13)"/></linearGradient></defs><polygon id="triangle36" points="1404,140 1921,67 1903,203" style="fill: url(#gr107); stroke: rgb(0, 0, 0); stroke-width: 0;"/><defs><linearGradient id="gr108" x1="0%" x2="100%" y1="0%" y2="100%"><stop offset="0%" stop-color="rgb(111,14,14)"/><stop offset="100%" stop-color="rgb(112,15,15)"/></linearGradient></defs><polygon id="triangle36" points="1732,924 2239,418 1903,203" style="fill: url(#gr108); stroke: rgb(0, 0, 0); stroke-width: 0;"/><defs><linearGradient id="gr109" x1="0%" x2="100%" y1="0%" y2="100%"><stop offset="0%" stop-color="rgb(147,19,19)"/><stop offset="100%" stop-color="rgb(103,13,13)"/></linearGradient></defs><polygon id="triangle36" points="1921,67 2286,28 1903,203" style="fill: url(#gr109); stroke: rgb(0, 0, 0); stroke-width: 0;"/><defs><linearGradient id="gr110" x1="0%" x2="100%" y1="0%" y2="100%"><stop offset="0%" stop-color="rgb(79,10,10)"/><stop offset="100%" stop-color="rgb(87,11,11)"/></linearGradient></defs><polygon id="triangle36" points="2239,418 2286,28 1903,203" style="fill: url(#gr110); stroke: rgb(0, 0, 0); stroke-width: 0;"/><defs><linearGradient id="gr111" x1="0%" x2="100%" y1="0%" y2="100%"><stop offset="0%" stop-color="rgb(49,6,6)"/><stop offset="100%" stop-color="rgb(62,8,8)"/></linearGradient></defs><polygon id="triangle36" points="2544,820 2712,1166 3356,1040" style="fill: url(#gr111); stroke: rgb(0, 0, 0); stroke-width: 0;"/><defs><linearGradient id="gr112" x1="0%" x2="100%" y1="0%" y2="100%"><stop offset="0%" stop-color="rgb(101,13,13)"/><stop offset="100%" stop-color="rgb(95,12,12)"/></linearGradient></defs><polygon id="triangle36" points="2544,820 3412,875 3356,1040" style="fill: url(#gr112); stroke: rgb(0, 0, 0); stroke-width: 0;"/><defs><linearGradient id="gr113" x1="0%" x2="100%" y1="0%" y2="100%"><stop offset="0%" stop-color="rgb(29,3,3)"/><stop offset="100%" stop-color="rgb(46,6,6)"/></linearGradient></defs><polygon id="triangle36" points="2712,1166 3127,1442 3356,1040" style="fill: url(#gr113); stroke: rgb(0, 0, 0); stroke-width: 0;"/><defs><linearGradient id="gr114" x1="0%" x2="100%" y1="0%" y2="100%"><stop offset="0%" stop-color="rgb(76,10,10)"/><stop offset="100%" stop-color="rgb(130,17,17)"/></linearGradient></defs><polygon id="triangle36" points="3127,1442 3595,1024 3356,1040" style="fill: url(#gr114); stroke: rgb(0, 0, 0); stroke-width: 0;"/><defs><linearGradient id="gr115" x1="0%" x2="100%" y1="0%" y2="100%"><stop offset="0%" stop-color="rgb(42,5,5)"/><stop offset="100%" stop-color="rgb(68,9,9)"/></linearGradient></defs><polygon id="triangle36" points="3412,875 3422,1004 3356,1040" style="fill: url(#gr115); stroke: rgb(0, 0, 0); stroke-width: 0;"/><defs><linearGradient id="gr116" x1="0%" x2="100%" y1="0%" y2="100%"><stop offset="0%" stop-color="rgb(28,3,3)"/><stop offset="100%" stop-color="rgb(87,11,11)"/></linearGradient></defs><polygon id="triangle36" points="3422,1004 3595,1024 3356,1040" style="fill: url(#gr116); stroke: rgb(0, 0, 0); stroke-width: 0;"/><defs><linearGradient id="gr117" x1="0%" x2="100%" y1="0%" y2="100%"><stop offset="0%" stop-color="rgb(81,10,10)"/><stop offset="100%" stop-color="rgb(46,6,6)"/></linearGradient></defs><polygon id="triangle36" points="1732,924 1877,1292 2138,1124" style="fill: url(#gr117); stroke: rgb(0, 0, 0); stroke-width: 0;"/><defs><linearGradient id="gr118" x1="0%" x2="100%" y1="0%" y2="100%"><stop offset="0%" stop-color="rgb(64,8,8)"/><stop offset="100%" stop-color="rgb(55,7,7)"/></linearGradient></defs><polygon id="triangle36" points="1732,924 2242,862 2138,1124" style="fill: url(#gr118); stroke: rgb(0, 0, 0); stroke-width: 0;"/><defs><linearGradient id="gr119" x1="0%" x2="100%" y1="0%" y2="100%"><stop offset="0%" stop-color="rgb(29,3,3)"/><stop offset="100%" stop-color="rgb(48,6,6)"/></linearGradient></defs><polygon id="triangle36" points="1877,1292 2442,1406 2138,1124" style="fill: url(#gr119); stroke: rgb(0, 0, 0); stroke-width: 0;"/><defs><linearGradient id="gr120" x1="0%" x2="100%" y1="0%" y2="100%"><stop offset="0%" stop-color="rgb(99,13,13)"/><stop offset="100%" stop-color="rgb(85,11,11)"/></linearGradient></defs><polygon id="triangle36" points="2242,862 2254,1131 2138,1124" style="fill: url(#gr120); stroke: rgb(0, 0, 0); stroke-width: 0;"/><defs><linearGradient id="gr121" x1="0%" x2="100%" y1="0%" y2="100%"><stop offset="0%" stop-color="rgb(84,11,11)"/><stop offset="100%" stop-color="rgb(58,8,8)"/></linearGradient></defs><polygon id="triangle36" points="2254,1131 2442,1406 2138,1124" style="fill: url(#gr121); stroke: rgb(0, 0, 0); stroke-width: 0;"/><defs><linearGradient id="gr122" x1="0%" x2="100%" y1="0%" y2="100%"><stop offset="0%" stop-color="rgb(66,9,9)"/><stop offset="100%" stop-color="rgb(71,9,9)"/></linearGradient></defs><polygon id="triangle36" points="473,244 657,457 643,180" style="fill: url(#gr122); stroke: rgb(0, 0, 0); stroke-width: 0;"/><defs><linearGradient id="gr123" x1="0%" x2="100%" y1="0%" y2="100%"><stop offset="0%" stop-color="rgb(98,13,13)"/><stop offset="100%" stop-color="rgb(111,14,14)"/></linearGradient></defs><polygon id="triangle36" points="657,457 798,271 643,180" style="fill: url(#gr123); stroke: rgb(0, 0, 0); stroke-width: 0;"/><defs><linearGradient id="gr124" x1="0%" x2="100%" y1="0%" y2="100%"><stop offset="0%" stop-color="rgb(89,11,11)"/><stop offset="100%" stop-color="rgb(48,6,6)"/></linearGradient></defs><polygon id="triangle36" points="798,271 1333,143 643,180" style="fill: url(#gr124); stroke: rgb(0, 0, 0); stroke-width: 0;"/><defs><linearGradient id="gr125" x1="0%" x2="100%" y1="0%" y2="100%"><stop offset="0%" stop-color="rgb(38,5,5)"/><stop offset="100%" stop-color="rgb(127,17,17)"/></linearGradient></defs><polygon id="triangle36" points="1333,143 1921,67 425,96" style="fill: url(#gr125); stroke: rgb(0, 0, 0); stroke-width: 0;"/><defs><linearGradient id="gr126" x1="0%" x2="100%" y1="0%" y2="100%"><stop offset="0%" stop-color="rgb(128,17,17)"/><stop offset="100%" stop-color="rgb(147,19,19)"/></linearGradient></defs><polygon id="triangle36" points="16,15 1921,67 425,96" style="fill: url(#gr126); stroke: rgb(0, 0, 0); stroke-width: 0;"/><defs><linearGradient id="gr127" x1="0%" x2="100%" y1="0%" y2="100%"><stop offset="0%" stop-color="rgb(136,18,18)"/><stop offset="100%" stop-color="rgb(114,15,15)"/></linearGradient></defs><polygon id="triangle36" points="16,15 473,244 425,96" style="fill: url(#gr127); stroke: rgb(0, 0, 0); stroke-width: 0;"/><defs><linearGradient id="gr128" x1="0%" x2="100%" y1="0%" y2="100%"><stop offset="0%" stop-color="rgb(80,10,10)"/><stop offset="100%" stop-color="rgb(131,17,17)"/></linearGradient></defs><polygon id="triangle36" points="473,244 643,180 425,96" style="fill: url(#gr128); stroke: rgb(0, 0, 0); stroke-width: 0;"/><defs><linearGradient id="gr129" x1="0%" x2="100%" y1="0%" y2="100%"><stop offset="0%" stop-color="rgb(101,13,13)"/><stop offset="100%" stop-color="rgb(145,19,19)"/></linearGradient></defs><polygon id="triangle36" points="643,180 1333,143 425,96" style="fill: url(#gr129); stroke: rgb(0, 0, 0); stroke-width: 0;"/><defs><linearGradient id="gr130" x1="0%" x2="100%" y1="0%" y2="100%"><stop offset="0%" stop-color="rgb(15,1,1)"/><stop offset="100%" stop-color="rgb(38,5,5)"/></linearGradient></defs><polygon id="triangle36" points="134,1492 312,1485 201,1808" style="fill: url(#gr130); stroke: rgb(0, 0, 0); stroke-width: 0;"/><defs><linearGradient id="gr131" x1="0%" x2="100%" y1="0%" y2="100%"><stop offset="0%" stop-color="rgb(7,1,1)"/><stop offset="100%" stop-color="rgb(13,1,1)"/></linearGradient></defs><polygon id="triangle36" points="262,2000 446,1879 201,1808" style="fill: url(#gr131); stroke: rgb(0, 0, 0); stroke-width: 0;"/><defs><linearGradient id="gr132" x1="0%" x2="100%" y1="0%" y2="100%"><stop offset="0%" stop-color="rgb(37,5,5)"/><stop offset="100%" stop-color="rgb(11,1,1)"/></linearGradient></defs><polygon id="triangle36" points="312,1485 446,1879 201,1808" style="fill: url(#gr132); stroke: rgb(0, 0, 0); stroke-width: 0;"/><defs><linearGradient id="gr133" x1="0%" x2="100%" y1="0%" y2="100%"><stop offset="0%" stop-color="rgb(0,0,0)"/><stop offset="100%" stop-color="rgb(0,0,0)"/></linearGradient></defs><polygon id="triangle36" points="1409,2006 2362,2093 121,2010" style="fill: url(#gr133); stroke: rgb(0, 0, 0); stroke-width: 0;"/><defs><linearGradient id="gr134" x1="0%" x2="100%" y1="0%" y2="100%"><stop offset="0%" stop-color="rgb(13,1,1)"/><stop offset="100%" stop-color="rgb(1,0,0)"/></linearGradient></defs><polygon id="triangle36" points="201,1808 262,2000 121,2010" style="fill: url(#gr134); stroke: rgb(0, 0, 0); stroke-width: 0;"/><defs><linearGradient id="gr135" x1="0%" x2="100%" y1="0%" y2="100%"><stop offset="0%" stop-color="rgb(0,0,0)"/><stop offset="100%" stop-color="rgb(0,0,0)"/></linearGradient></defs><polygon id="triangle36" points="262,2000 1409,2006 121,2010" style="fill: url(#gr135); stroke: rgb(0, 0, 0); stroke-width: 0;"/><defs><linearGradient id="gr136" x1="0%" x2="100%" y1="0%" y2="100%"><stop offset="0%" stop-color="rgb(69,9,9)"/><stop offset="100%" stop-color="rgb(34,4,4)"/></linearGradient></defs><polygon id="triangle36" points="312,1485 446,1879 537,1496" style="fill: url(#gr136); stroke: rgb(0, 0, 0); stroke-width: 0;"/><defs><linearGradient id="gr137" x1="0%" x2="100%" y1="0%" y2="100%"><stop offset="0%" stop-color="rgb(71,9,9)"/><stop offset="100%" stop-color="rgb(55,7,7)"/></linearGradient></defs><polygon id="triangle36" points="312,1485 513,1058 537,1496" style="fill: url(#gr137); stroke: rgb(0, 0, 0); stroke-width: 0;"/><defs><linearGradient id="gr138" x1="0%" x2="100%" y1="0%" y2="100%"><stop offset="0%" stop-color="rgb(13,1,1)"/><stop offset="100%" stop-color="rgb(20,2,2)"/></linearGradient></defs><polygon id="triangle36" points="446,1879 712,1802 537,1496" style="fill: url(#gr138); stroke: rgb(0, 0, 0); stroke-width: 0;"/><defs><linearGradient id="gr139" x1="0%" x2="100%" y1="0%" y2="100%"><stop offset="0%" stop-color="rgb(68,9,9)"/><stop offset="100%" stop-color="rgb(69,9,9)"/></linearGradient></defs><polygon id="triangle36" points="513,1058 723,1234 537,1496" style="fill: url(#gr139); stroke: rgb(0, 0, 0); stroke-width: 0;"/><defs><linearGradient id="gr140" x1="0%" x2="100%" y1="0%" y2="100%"><stop offset="0%" stop-color="rgb(15,1,1)"/><stop offset="100%" stop-color="rgb(38,4,4)"/></linearGradient></defs><polygon id="triangle36" points="712,1802 756,1615 537,1496" style="fill: url(#gr140); stroke: rgb(0, 0, 0); stroke-width: 0;"/><defs><linearGradient id="gr141" x1="0%" x2="100%" y1="0%" y2="100%"><stop offset="0%" stop-color="rgb(107,14,14)"/><stop offset="100%" stop-color="rgb(67,8,8)"/></linearGradient></defs><polygon id="triangle36" points="723,1234 756,1615 537,1496" style="fill: url(#gr141); stroke: rgb(0, 0, 0); stroke-width: 0;"/><defs><linearGradient id="gr142" x1="0%" x2="100%" y1="0%" y2="100%"><stop offset="0%" stop-color="rgb(132,18,18)"/><stop offset="100%" stop-color="rgb(73,10,10)"/></linearGradient></defs><polygon id="triangle36" points="16,15 53,1470 42,1609" style="fill: url(#gr142); stroke: rgb(0, 0, 0); stroke-width: 0;"/><defs><linearGradient id="gr143" x1="0%" x2="100%" y1="0%" y2="100%"><stop offset="0%" stop-color="rgb(72,9,9)"/><stop offset="100%" stop-color="rgb(48,6,6)"/></linearGradient></defs><polygon id="triangle36" points="53,1470 134,1492 42,1609" style="fill: url(#gr143); stroke: rgb(0, 0, 0); stroke-width: 0;"/><defs><linearGradient id="gr144" x1="0%" x2="100%" y1="0%" y2="100%"><stop offset="0%" stop-color="rgb(16,2,2)"/><stop offset="100%" stop-color="rgb(26,3,3)"/></linearGradient></defs><polygon id="triangle36" points="121,2010 201,1808 56,1663" style="fill: url(#gr144); stroke: rgb(0, 0, 0); stroke-width: 0;"/><defs><linearGradient id="gr145" x1="0%" x2="100%" y1="0%" y2="100%"><stop offset="0%" stop-color="rgb(15,1,1)"/><stop offset="100%" stop-color="rgb(24,3,3)"/></linearGradient></defs><polygon id="triangle36" points="134,1492 201,1808 56,1663" style="fill: url(#gr145); stroke: rgb(0, 0, 0); stroke-width: 0;"/><defs><linearGradient id="gr146" x1="0%" x2="100%" y1="0%" y2="100%"><stop offset="0%" stop-color="rgb(54,7,7)"/><stop offset="100%" stop-color="rgb(20,2,2)"/></linearGradient></defs><polygon id="triangle36" points="42,1609 121,2010 56,1663" style="fill: url(#gr146); stroke: rgb(0, 0, 0); stroke-width: 0;"/><defs><linearGradient id="gr147" x1="0%" x2="100%" y1="0%" y2="100%"><stop offset="0%" stop-color="rgb(73,9,9)"/><stop offset="100%" stop-color="rgb(34,4,4)"/></linearGradient></defs><polygon id="triangle36" points="42,1609 134,1492 56,1663" style="fill: url(#gr147); stroke: rgb(0, 0, 0); stroke-width: 0;"/><defs><linearGradient id="gr148" x1="0%" x2="100%" y1="0%" y2="100%"><stop offset="0%" stop-color="rgb(0,0,0)"/><stop offset="100%" stop-color="rgb(0,0,0)"/></linearGradient></defs><polygon id="triangle36" points="2362,2093 2429,2081 3787,2074" style="fill: url(#gr148); stroke: rgb(0, 0, 0); stroke-width: 0;"/><defs><linearGradient id="gr149" x1="0%" x2="100%" y1="0%" y2="100%"><stop offset="0%" stop-color="rgb(0,0,0)"/><stop offset="100%" stop-color="rgb(0,0,0)"/></linearGradient></defs><polygon id="triangle36" points="2429,2081 3251,2022 3787,2074" style="fill: url(#gr149); stroke: rgb(0, 0, 0); stroke-width: 0;"/><defs><linearGradient id="gr150" x1="0%" x2="100%" y1="0%" y2="100%"><stop offset="0%" stop-color="rgb(4,0,0)"/><stop offset="100%" stop-color="rgb(13,1,1)"/></linearGradient></defs><polygon id="triangle36" points="3251,2022 3792,1687 3787,2074" style="fill: url(#gr150); stroke: rgb(0, 0, 0); stroke-width: 0;"/></svg>